<svg viewBox="0 0 640 400" data-background-color="#ffffff" preserveAspectRatio="xMidYMid meet" height="400" width="640" xmlns="http://www.w3.org/2000/svg" xmlns:xlink="http://www.w3.org/1999/xlink"><rect width="640" height="400" x="0" y="0" opacity="1" fill="#ffffff" data-fill-palette-color="background" id="background"></rect><g id="tight-bounds" transform="matrix(1,0,0,1,122.24000000000001,147.36508214676888)"><svg viewBox="0 0 395.52 105.26983570646222" height="105.26983570646222" width="395.52"><g><svg viewBox="0 0 395.52000000000004 105.26983570646223" height="105.26983570646222" width="395.52"><g><svg viewBox="0 0 395.52000000000004 105.26983570646223" height="105.26983570646223" width="395.52000000000004"><g><svg viewBox="0 0 395.52000000000004 105.26983570646223" height="105.26983570646223" width="395.52000000000004"><g><svg viewBox="0 0 395.52000000000004 105.26983570646223" height="105.26983570646223" width="395.52000000000004"><g transform="matrix(1,0,0,1,0,0)"><svg width="395.52000000000004" viewBox="1.5 -36 136.94000244140625 36.45000076293945" height="105.26983570646223" data-palette-color="#3f51b5"><path d="M27.05-0.38Q25.05 0.1 22.98 0.28 20.9 0.45 18.93 0.45 16.95 0.45 15.88 0.35 14.8 0.25 13.05-0.15 11.3-0.55 9.85-1.25 8.4-1.95 6.78-3.3 5.15-4.65 4.05-6.5L4.05-6.5Q1.5-10.8 1.5-17.6L1.5-17.6Q1.5-22.15 2.93-25.65 4.35-29.15 6.38-31.05 8.4-32.95 11-34.1L11-34.1Q15.2-36 19.45-36L19.45-36Q25.55-36 28.2-35L28.2-35Q29.4-34.55 30.35-33.6 31.3-32.65 31.3-30.85 31.3-29.05 30.43-26.3 29.55-23.55 27.9-23.55L27.9-23.55Q27.4-23.55 24.2-24.35 21-25.15 19.85-25.15L19.85-25.15Q18.1-25.15 16.88-23.2 15.65-21.25 15.65-17.65 15.65-14.05 16.73-12.05 17.8-10.05 19.55-10.05L19.55-10.05Q20.8-10.05 24.08-11.08 27.35-12.1 27.9-12.1L27.9-12.1Q29.45-12.1 30.33-9.25 31.2-6.4 31.2-4.65 31.2-2.9 30.13-1.88 29.05-0.85 27.05-0.38ZM48.6-2.55Q48.5-1.1 47.07-0.55 45.65 0 41.95 0 38.25 0 35.77-0.68 33.3-1.35 33.3-2.4L33.3-2.4Q33.3-3.6 37.75-17.73 42.2-31.85 42.85-34L42.85-34Q43.1-34.65 46.87-35.08 50.65-35.5 54.97-35.5 59.3-35.5 59.75-34L59.75-34Q69.2-2.6 69.2-2.1 69.2-1.6 68.6-1.1L68.6-1.1Q67.2 0 63.05 0L63.05 0Q54.2 0 54-2.1L54-2.1 53.65-5.35 48.85-5.35 48.6-2.55ZM49.9-14.85L52.6-14.85 51.85-23.85 50.75-23.85 49.9-14.85ZM85.6-9.05L85.6-1.45Q85.6-0.8 82.55-0.4 79.5 0 76.45 0 73.4 0 72.55-0.35 71.7-0.7 71.7-1.45L71.7-1.45 71.7-33.6Q71.7-36 86.1-36L86.1-36Q94.8-36 97.6-34.8L97.6-34.8Q101-33.4 102.2-31L102.2-31Q103.8-27.9 103.8-23.05L103.8-23.05Q103.8-16.4 101.5-13.4L101.5-13.4Q99.85-11.2 98.2-10.55 96.55-9.9 95.47-9.63 94.4-9.35 92.8-9.2L92.8-9.2Q90.6-9 86.8-9L86.8-9 85.6-9.05ZM85.65-27.6L85.65-17.35 86.85-17.35Q87.8-17.35 88.35-17.63 88.9-17.9 89.32-19.13 89.75-20.35 89.75-22.58 89.75-24.8 89.27-25.98 88.8-27.15 88.32-27.38 87.85-27.6 87.2-27.6L87.2-27.6 85.65-27.6ZM117.84-2.55Q117.74-1.1 116.32-0.55 114.89 0 111.19 0 107.49 0 105.02-0.68 102.54-1.35 102.54-2.4L102.54-2.4Q102.54-3.6 106.99-17.73 111.44-31.85 112.09-34L112.09-34Q112.34-34.65 116.12-35.08 119.89-35.5 124.22-35.5 128.54-35.5 128.99-34L128.99-34Q138.44-2.6 138.44-2.1 138.44-1.6 137.84-1.1L137.84-1.1Q136.44 0 132.29 0L132.29 0Q123.44 0 123.24-2.1L123.24-2.1 122.89-5.35 118.09-5.35 117.84-2.55ZM119.14-14.85L121.84-14.85 121.09-23.85 119.99-23.85 119.14-14.85Z" opacity="1" transform="matrix(1,0,0,1,0,0)" fill="#3f51b5" class="undefined-text-0" data-fill-palette-color="primary" id="text-0"></path></svg></g></svg></g></svg></g></svg></g></svg></g></svg><rect width="395.52" height="105.26983570646222" fill="none" stroke="none" visibility="hidden"></rect></g><defs></defs></svg>